<svg width="48" height="48" version="1.1" xmlns="http://www.w3.org/2000/svg" desc="Created with imagetracer.js version 1.2.6" ><path fill="rgb(144,0,199)" stroke="rgb(144,0,199)" stroke-width="1" opacity="1" d="M 18.5 11 L 16.5 14 L 18.5 11 Z " /><path fill="rgb(144,0,199)" stroke="rgb(144,0,199)" stroke-width="1" opacity="1" d="M 40.5 11 L 41 13.5 L 39 12.5 L 40.5 11 Z " /><path fill="rgb(144,0,199)" stroke="rgb(144,0,199)" stroke-width="1" opacity="1" d="M 26.5 17 Q 30.3 16.3 31 18.5 L 29.5 19 L 26.5 18 L 26.5 17 Z " /><path fill="rgb(144,0,199)" stroke="rgb(144,0,199)" stroke-width="1" opacity="1" d="M 38.5 18 Q 40.8 17.3 40 19.5 L 38.5 18 Z " /><path fill="rgb(144,0,199)" stroke="rgb(144,0,199)" stroke-width="1" opacity="1" d="M 13.5 20 L 14 22.5 L 13 22.5 L 13.5 20 Z " /><path fill="rgb(144,0,199)" stroke="rgb(144,0,199)" stroke-width="1" opacity="1" d="M 37.5 24 Q 39.8 23.3 39 25.5 L 37.5 24 Z " /><path fill="rgb(144,0,199)" stroke="rgb(144,0,199)" stroke-width="1" opacity="1" d="M 15.5 27 L 18 27.5 Q 15.9 30.8 15.5 27 Z " /><path fill="rgb(144,0,199)" stroke="rgb(144,0,199)" stroke-width="1" opacity="1" d="M 15.5 30 L 14.5 32 L 15.5 30 Z " /><path fill="rgb(144,0,199)" stroke="rgb(144,0,199)" stroke-width="1" opacity="1" d="M 36.5 30 Q 38.8 29.3 38 31.5 L 36.5 30 Z " /><path fill="rgb(144,0,199)" stroke="rgb(144,0,199)" stroke-width="1" opacity="1" d="M 26.5 35 L 27.5 37 Q 24.7 37.7 26.5 35 Z " /><path fill="rgb(144,0,199)" stroke="rgb(144,0,199)" stroke-width="1" opacity="1" d="M 22.5 36 L 21.5 38 L 22.5 36 Z " /><path fill="rgb(144,0,199)" stroke="rgb(144,0,199)" stroke-width="1" opacity="1" d="M 35.5 36 Q 37.8 35.3 37 37.5 L 35.5 36 Z " /><path fill="rgb(221,221,221)" stroke="rgb(221,221,221)" stroke-width="1" opacity="1" d="M 19.5 12 L 16.5 16 L 19.5 12 Z " /><path fill="rgb(221,221,221)" stroke="rgb(221,221,221)" stroke-width="1" opacity="1" d="M 25.5 23 L 30 23.5 L 25.5 24 L 25.5 23 Z " /><path fill="rgb(221,221,221)" stroke="rgb(221,221,221)" stroke-width="1" opacity="1" d="M 18.5 28 L 17.5 30 L 18.5 28 Z " /><path fill="rgb(221,221,221)" stroke="rgb(221,221,221)" stroke-width="1" opacity="1" d="M 16.5 31 L 15.5 33 L 16.5 31 Z " /><path fill="rgb(221,221,221)" stroke="rgb(221,221,221)" stroke-width="1" opacity="1" d="M 24.5 31 L 23.5 33 L 24.5 31 Z " /><path fill="rgb(221,221,221)" stroke="rgb(221,221,221)" stroke-width="1" opacity="1" d="M 13.5 35 L 12.5 37 L 13.5 35 Z " /><path fill="rgb(183,0,253)" stroke="rgb(183,0,253)" stroke-width="1" opacity="1" d="M 9.5 38 L 10 40 L 20 40.5 L 10.5 41 L 9.5 38 Z " /><path fill="rgb(183,0,253)" stroke="rgb(183,0,253)" stroke-width="1" opacity="1" d="M 26.5 40 L 36 40.5 L 26.5 41 L 26.5 40 Z " /><path fill="rgb(255,255,255)" stroke="rgb(255,255,255)" stroke-width="1" opacity="1" d="M 26.5 10 L 39 10 L 39 14.5 L 38 15.5 L 35 39 L 28 39 L 28 34.5 L 29 29 Q 25.2 28 24 30.5 L 18.5 39 L 12 38.5 L 19 27 L 16 25.5 L 15 20.5 Q 16.3 14.8 20.5 12 L 26.5 10 Z M 26 16 L 25 17 L 23 18 L 23 23 L 30 24 L 31 22 Q 34 13 26 16 Z " /><path fill="rgb(72,51,80)" stroke="rgb(72,51,80)" stroke-width="1" opacity="1" d="M 24.5 9 L 40.5 9 L 41 10.5 L 39.5 10 L 24.5 10 L 24.5 9 Z " /><path fill="rgb(72,51,80)" stroke="rgb(72,51,80)" stroke-width="1" opacity="1" d="M 21.5 10 L 23 10.5 L 16 15.5 L 15.5 17 L 15 15.5 L 21.5 10 Z " /><path fill="rgb(72,51,80)" stroke="rgb(72,51,80)" stroke-width="1" opacity="1" d="M 39.5 13 L 40 17.5 L 39 17.5 L 39.5 13 Z " /><path fill="rgb(72,51,80)" stroke="rgb(72,51,80)" stroke-width="1" opacity="1" d="M 26.5 16 Q 31.9 14.1 31 17.5 L 29.5 17 Q 24.8 16.3 24 19.5 L 24 22 L 29 22 L 29.5 19 L 30 23 Q 24.6 24.5 23 21.5 L 24 17 L 26.5 16 Z " /><path fill="rgb(72,51,80)" stroke="rgb(72,51,80)" stroke-width="1" opacity="1" d="M 14.5 18 Q 13.8 25.8 18 28.5 L 11 38.5 L 20 39 L 26.5 29 Q 29.5 28.5 28 35.5 L 27 35.5 L 26.5 31 L 19.5 40 L 10.5 40 L 10 38.5 L 17 28.5 Q 12.3 25.8 14.5 18 Z " /><path fill="rgb(72,51,80)" stroke="rgb(72,51,80)" stroke-width="1" opacity="1" d="M 38.5 19 L 39 23.5 L 38 23.5 L 38.5 19 Z " /><path fill="rgb(72,51,80)" stroke="rgb(72,51,80)" stroke-width="1" opacity="1" d="M 37.5 25 L 38 29.5 L 37 29.5 L 37.5 25 Z " /><path fill="rgb(72,51,80)" stroke="rgb(72,51,80)" stroke-width="1" opacity="1" d="M 36.5 31 L 37 35.5 L 36 35.5 L 36.5 31 Z " /><path fill="rgb(72,51,80)" stroke="rgb(72,51,80)" stroke-width="1" opacity="1" d="M 26.5 37 L 27 39 L 34.5 39 L 35 37.5 L 36 37.5 L 35.5 40 L 26 40 L 26.5 37 Z " /><path fill="rgb(184,0,254)" stroke="rgb(184,0,254)" stroke-width="1" opacity="1" d="M 0 0 L 48 0 L 48 48 L 0 48 L 0 0 Z M 23 9 L 19 11 Q 14 14 13 20 Q 12 26 16 29 L 9 40 L 11 41 L 20 41 L 26 32 L 27 32 L 26 35 L 26 41 L 36 41 L 38 31 L 38 29 L 41 15 Q 42 9 41 9 L 23 9 Z " /><path fill="rgb(184,0,254)" stroke="rgb(184,0,254)" stroke-width="1" opacity="1" d="M 25 18 Q 31 16 29 22 Q 25.2 23 24 20.5 L 25 18 Z " /></svg>